<svg xmlns="http://www.w3.org/2000/svg" width="100" height="124" viewBox="0 0 100 124"><g><g><g><g><path fill="#042f5c" d="M78.464 54.313H62.817l7.128-10.368h22.343zM49.762 75.84L25.885 57.93H55.94l-7.667 11.152a1.81 1.81 0 0 0 2.981 2.05l9.076-13.202h13.31zm13.45 44.41H36.313l13.45-8.07zM3.618 30.148c0-4.493 2.926-8.312 6.972-9.659l1.416 9.915a1.81 1.81 0 0 0 3.582-.512l-1.416-9.914c5.44.198 9.804 4.683 9.804 10.17 0 5.61-4.561 10.174-10.17 10.18h-.018c-5.608-.006-10.17-4.57-10.17-10.18zm95.814 11.416a1.809 1.809 0 0 0-1.716-1.237H72.433L95.21 7.196a1.81 1.81 0 0 0-2.982-2.05l-24.186 35.18H38.729a1.809 1.809 0 1 0 0 3.619h26.825l-7.128 10.368H21.06L7.237 43.945H31.5a1.809 1.809 0 1 0 0-3.618h-8.4a13.764 13.764 0 0 0 4.494-10.18c0-7.607-6.19-13.797-13.798-13.797-.048 0-.095.003-.143.004L11.592 1.919a1.809 1.809 0 1 0-3.582.512l2.062 14.434C4.27 18.495 0 23.83 0 30.148c0 4.026 1.734 7.654 4.494 10.179H1.809a1.809 1.809 0 0 0-1.085 3.256l47.23 35.422v30.04L28.85 120.508a1.81 1.81 0 0 0 .93 3.36h39.962a1.81 1.81 0 0 0 .931-3.36l-19.102-11.462v-30.04l47.23-35.422c.622-.467.876-1.28.63-2.02z"/></g></g></g></g></svg>