<svg xmlns="http://www.w3.org/2000/svg" width="200" height="247" viewBox="0 0 200 247"><g><g><path fill="#042f5c" d="M157.58 107.818h-31.271l14.247-20.722h44.654zm-57.362 43.02l-47.72-35.789h60.064l-15.323 22.289a3.616 3.616 0 0 0 5.958 4.096l18.14-26.385h26.601zm26.88 88.758h-53.76l26.88-16.127zM7.995 59.521c0-8.978 5.849-16.611 13.934-19.303l2.83 19.815A3.617 3.617 0 0 0 28.85 63.1a3.615 3.615 0 0 0 3.068-4.09l-2.83-19.815c10.87.396 19.595 9.36 19.595 20.326 0 11.212-9.117 20.334-20.326 20.344h-.037C17.112 79.855 7.995 70.733 7.995 59.52zm191.492 22.816a3.615 3.615 0 0 0-3.43-2.472h-50.53l45.522-66.216a3.616 3.616 0 0 0-5.959-4.096l-48.339 70.312H78.168a3.615 3.615 0 1 0 0 7.231h53.611l-14.246 20.722H42.857l-27.63-20.722H63.72a3.615 3.615 0 1 0 0-7.231H46.933c5.516-5.046 8.981-12.297 8.981-20.344 0-15.205-12.37-27.576-27.575-27.576-.096 0-.19.007-.286.008l-4.121-28.85a3.615 3.615 0 1 0-7.158 1.023l4.12 28.849C9.296 36.232.764 46.895.764 59.52c0 8.047 3.465 15.298 8.981 20.344H4.38a3.615 3.615 0 0 0-2.17 6.508l94.393 70.794v60.038l-38.178 22.907a3.616 3.616 0 0 0 1.86 6.716h79.867a3.616 3.616 0 0 0 1.86-6.716l-38.178-22.907v-60.039l94.393-70.794a3.615 3.615 0 0 0 1.26-4.035z"/></g></g></svg>