<svg xmlns="http://www.w3.org/2000/svg" width="30" height="29" viewBox="0 0 30 29"><g><g><path fill="#f3f4f6" d="M16.029 12.822v-.04a.674.674 0 0 0-.028.04zm8.815 10.976h-4.295V16.93c0-1.725-.622-2.903-2.175-2.903-1.188 0-1.893.795-2.202 1.561-.115.274-.144.657-.144 1.04v7.17h-4.293s.056-11.632 0-12.836h4.294v1.82c.57-.875 1.589-2.122 3.869-2.122 2.826 0 4.946 1.833 4.946 5.778zM7.184 9.208c-1.441 0-2.375-.985-2.375-2.218 0-1.258.961-2.217 2.43-2.217 1.47 0 2.373.959 2.402 2.217 0 1.234-.932 2.218-2.429 2.218zm2.175 14.59H5.064V10.962h4.295zM27.071 0H2.84c-1.16 0-2.1.912-2.1 2.037v24.355c0 1.126.94 2.038 2.1 2.038h24.23c1.16 0 2.1-.913 2.1-2.038V2.037C29.17.912 28.23 0 27.07 0z"/></g></g></svg>