<svg xmlns="http://www.w3.org/2000/svg" width="62" height="54" viewBox="0 0 62 54"><g><g><g><path fill="#f39200" d="M6.407 53.333V.478h.702v52.855z"/></g><g><path fill="#1c9fd4" d="M19.958 39.923V.478h.702v39.445z"/></g><g><path fill="#f39200" d="M21.195 39.923V.478h.702v39.445z"/></g><g><path fill="#f39200" d="M28.954 39.923V.478h.703v39.445z"/></g><g><path fill="#e30613" d="M30.22 39.923V.478h.702v39.445z"/></g><g><path fill="#008d3f" d="M31.484 39.923V.478h.703v39.445z"/></g><g><path fill="#7e1863" d="M32.721 39.923V.478h.703v39.445z"/></g><g><path fill="#fe0" d="M33.987 39.923V.478h.702v39.445z"/></g><g><path fill="#1c9fd4" d="M39.722 39.923V.478h.843v39.445z"/></g><g><path fill="#7e1863" d="M41.718 39.923V.478h.703v39.445z"/></g><g><path fill="#e30613" d="M43.63 39.923V.478h.703v39.445z"/></g><g><path fill="#008e36" d="M48.831 39.923V10.29h.703v29.633z"/></g><g><path fill="#f39200" d="M54.032 39.923V10.29h.703v29.633z"/></g><g><path fill="#7e1863" d="M58.53 39.923V.478h.703v39.445z"/></g><g><path fill="#1c9fd4" d="M4.467 53.333V.478h1.377v52.855z"/></g><g><path fill="#e30613" d="M7.728 53.333V.478h1.377v52.855z"/></g><g><path fill="#7e1863" d="M10.286 40.513V.478h1.378v39.417s-.815.084-1.378.618z"/></g><g><path fill="#008d3f" d="M12.873 39.923V.478h1.377v39.445z"/></g><g><path fill="#fe0" d="M14.785 39.923V.478h1.377v39.445z"/></g><g><path fill="#22387d" d="M23.781 39.923V.478h1.378v39.445z"/></g><g><path fill="#1c9fd4" d="M25.637 39.923V.478h2.08v39.445z"/></g><g><path fill="#f39200" d="M36.601 39.923V.478h2.08v39.445z"/></g><g><path fill="#e30613" d="M50.743 39.895V10.318h2.08v29.577z"/></g><g><path fill="#008d3f" d="M48.831 7.507V.478h.703v7.029z"/></g><g><path fill="#f39205" d="M54.032 7.507V.478h.703v7.029z"/></g><g><path fill="#e20717" d="M50.743 7.507V.478h2.08v7.029z"/></g><g><path fill="#e30613" d="M16.696 39.923V.478h2.7v39.445z"/></g><g><path fill="#22387d" d="M.643 2.362V51.45c0 .534.281.984.703 1.32V1.04c-.422.338-.703.788-.703 1.322z"/></g><g><path fill="#7e1863" d="M1.908.703v52.405c.225.085.45.169.703.197V.506c-.253.028-.478.113-.703.197z"/></g><g><path fill="#008d3f" d="M61.623 2.334v37.56h-.703V1.013c.45.338.703.816.703 1.322z"/></g><g><path fill="#1c9fd4" d="M60.358.703v39.22h-.703V.506c.253.028.478.113.703.197z"/></g><g><path fill="#1c9fd4" d="M11.242 49.257v-5.23h1.322v5.23zm.675-5.708a.81.81 0 0 1-.562-.196.704.704 0 0 1-.225-.506c0-.197.084-.366.225-.507.14-.14.337-.196.562-.196.225 0 .422.056.562.196.14.141.225.31.225.507a.704.704 0 0 1-.225.506.81.81 0 0 1-.562.196z"/></g><g><path fill="#161717" d="M16.64 41.863h.084c.507 0 1.013.112 1.49.337a4.24 4.24 0 0 1 1.322.9l-.956.871c-.253-.225-.59-.393-.928-.534a2.636 2.636 0 0 0-.956-.197h-.084c-.31 0-.59.056-.872.197-.28.14-.393.337-.393.618 0 .225.112.394.31.507.224.112.505.168.899.224l.59.057c.815.084 1.462.309 1.912.674.45.338.675.872.675 1.575 0 .675-.281 1.237-.816 1.63-.534.422-1.209.619-2.052.619h-.056c-.703 0-1.293-.14-1.828-.422-.534-.28-.956-.618-1.265-1.068l.956-.872c.197.253.478.506.844.703.365.197.815.281 1.32.281h.113c.422 0 .76-.084 1.012-.253.254-.168.394-.365.394-.646s-.112-.506-.337-.647c-.225-.14-.563-.225-1.012-.281l-.59-.056c-1.66-.197-2.475-.872-2.475-2.025 0-.674.253-1.208.76-1.602.505-.366 1.152-.59 1.94-.59z"/></g><g><path fill="#161717" d="M27.38 43.943c.73 0 1.293.225 1.687.675.393.45.59 1.068.59 1.855v2.756h-1.321v-2.643c0-.9-.394-1.35-1.153-1.35-.394 0-.703.113-.928.366-.225.253-.337.618-.337 1.096v2.559h-1.322v-2.671c0-.9-.393-1.35-1.152-1.35-.394 0-.703.113-.928.366-.225.253-.337.618-.337 1.096v2.559h-1.322v-5.23h.872l.084.816c.366-.59.956-.9 1.8-.9.9 0 1.518.337 1.855 1.012.169-.337.422-.59.731-.759.365-.14.76-.253 1.18-.253z"/></g><g><path fill="#161717" d="M32.44 47.654c-.253-.253-.393-.59-.393-1.012 0-.422.112-.76.393-1.012.282-.253.59-.394.956-.394s.675.14.956.394c.253.253.394.59.394 1.012 0 .422-.113.759-.394 1.012s-.59.394-.956.394c-.365 0-.703-.14-.956-.394zm3.515-3.627h-.9l-.084.731c-.422-.534-1.012-.815-1.743-.815-.731 0-1.35.253-1.828.787-.478.506-.73 1.153-.73 1.912 0 .76.252 1.406.73 1.912.478.534 1.097.787 1.828.787.73 0 1.32-.281 1.743-.815l.084.73h.9z"/></g><g><path fill="#161717" d="M40.706 45.236h-.534c-.478 0-.844.14-1.097.45s-.365.703-.365 1.209v2.362h-1.322v-5.23h.9l.14 1.125c.422-.815 1.125-1.209 2.081-1.209h.225v1.293z"/></g><g><path fill="#161717" d="M43.292 45.32v3.965h-1.349V45.32h-.675v-1.294h.675v-1.77h1.35v1.77h.674v1.294z"/></g><g><path fill="#161717" d="M46.076 45.799h2.22c.563 0 .957.112 1.238.365s.422.562.422.984c0 .9-.535 1.35-1.631 1.35h-2.25zm0-3.121h1.883c.619 0 1.04.112 1.266.337.225.225.337.534.337.9 0 .815-.506 1.209-1.574 1.209h-1.912zm-.844-.76v7.31h2.924c1.715 0 2.559-.674 2.559-2.024 0-.45-.14-.871-.394-1.18-.253-.31-.618-.535-1.096-.62.759-.252 1.124-.786 1.124-1.602 0-1.265-.787-1.883-2.418-1.883h-2.67z"/></g><g><path fill="#161717" d="M52.345 46.642c0-.562.197-1.04.563-1.406a1.846 1.846 0 0 1 1.35-.562c.505 0 .983.197 1.349.562.365.394.562.844.562 1.406 0 .562-.197 1.04-.562 1.406a1.846 1.846 0 0 1-1.35.562c-.534 0-.984-.197-1.35-.562-.365-.366-.562-.844-.562-1.406zm4.583-2.67h-.534l-.028 1.18a2.231 2.231 0 0 0-.872-.9 2.509 2.509 0 0 0-1.265-.337c-.731 0-1.35.253-1.856.787a2.652 2.652 0 0 0-.759 1.912c0 .759.253 1.377.76 1.912.505.534 1.124.787 1.855.787.478 0 .9-.113 1.265-.338a2.43 2.43 0 0 0 .872-.9l.028 1.182h.534z"/></g><g><path fill="#161717" d="M61.623 44.702h-.281c-.703 0-1.237.225-1.575.647-.337.421-.506.984-.506 1.687v2.249h-.759v-5.23h.535l.084 1.406c.197-.478.506-.871.9-1.124.421-.253.9-.366 1.461-.366h.141z"/></g><g><path fill="#fe0" d="M47.257 8.913c0-.76.45-1.35 1.04-1.406V.478h-2.08v39.445h2.08V10.318c-.59-.056-1.04-.646-1.04-1.405z"/></g><g><path fill="#22387d" d="M55.213.478v7.029h.337c.619 0 1.097.618 1.097 1.406 0 .787-.506 1.405-1.097 1.405h-.337v29.577h2.08V.478z"/></g><g><g><path fill="#161717" d="M25.609 51.562v1.771h-.422v-1.771h-.59v-.394h1.602v.394z"/></g><g><path fill="#161717" d="M28.251 52.265a.677.677 0 0 1-.196.506c-.113.14-.282.197-.478.197a.617.617 0 0 1-.478-.197.677.677 0 0 1-.197-.506c0-.197.056-.366.197-.506.112-.14.28-.197.478-.197.196 0 .337.056.478.197.14.112.196.28.196.506zm-1.77 0c0 .31.083.562.308.787.225.197.478.31.788.31.309 0 .59-.085.787-.31.197-.225.31-.478.31-.787 0-.31-.085-.562-.31-.787a1.154 1.154 0 0 0-.787-.31c-.31 0-.563.085-.788.31-.225.196-.309.478-.309.787z"/></g><g><path fill="#161717" d="M30.922 51.168v1.266c0 .309-.084.534-.253.674a.827.827 0 0 1-.618.253.827.827 0 0 1-.619-.253c-.169-.168-.253-.393-.253-.674v-1.266h.422v1.237c0 .197.056.338.14.422.085.084.197.14.31.14.14 0 .225-.056.309-.14.084-.084.14-.225.14-.422v-1.237z"/></g><g><path fill="#161717" d="M32.272 51.562c.14 0 .28.028.365.112.084.085.14.17.14.31 0 .14-.056.253-.14.309-.084.084-.225.112-.365.112h-.338v-.843zm-.703-.394v2.165h.422V52.8h.224c.113 0 .17.028.225.056.057.028.113.113.197.253l.14.225h.479l-.197-.281c-.113-.197-.225-.337-.31-.394a.767.767 0 0 0 .338-.253c.084-.112.112-.253.112-.421 0-.253-.084-.45-.253-.59-.168-.141-.421-.226-.702-.226h-.731z"/></g><g><path fill="#161717" d="M34.352 52.94h.253v.393h-.956v-.393h.253v-1.35h-.253v-.394h.956v.394h-.253z"/></g><g><path fill="#161717" d="M35.955 51.14c.168 0 .309.028.478.085.14.056.28.14.393.253l-.281.253c-.084-.057-.169-.113-.281-.14-.113-.029-.197-.057-.281-.057h-.028c-.085 0-.169.028-.253.056-.085.028-.113.113-.113.197 0 .056.028.112.085.14.056.029.14.057.28.057l.17.028c.252.028.421.084.562.197.14.112.196.253.196.478a.6.6 0 0 1-.224.477c-.17.113-.366.17-.619.197h-.028c-.197 0-.394-.028-.534-.112a1.015 1.015 0 0 1-.366-.31l.281-.252c.057.084.14.14.253.196a.898.898 0 0 0 .394.085h.028a.567.567 0 0 0 .31-.085c.084-.056.112-.112.112-.196 0-.085-.028-.141-.113-.197a1.492 1.492 0 0 0-.309-.085l-.169-.028c-.478-.056-.73-.253-.73-.59a.6.6 0 0 1 .224-.478c.14-.084.31-.169.563-.169z"/></g><g><path fill="#161717" d="M39.469 53.333h-.422v-1.377l-.646.815-.647-.815v1.377h-.422v-2.165h.253l.816 1.04.815-1.04h.253z"/></g><g><path fill="#161717" d="M41.887 51.562c.14 0 .28.028.365.112.085.085.14.17.14.31 0 .14-.055.253-.14.309-.084.084-.225.112-.365.112h-.338v-.843zm-.76 1.771h.479V52.8h.225c.112 0 .168.028.224.056.057.028.113.113.197.253l.14.225h.479l-.197-.281c-.112-.197-.225-.337-.31-.394a.767.767 0 0 0 .338-.253c.084-.112.113-.253.113-.421 0-.253-.085-.45-.253-.59-.17-.141-.422-.226-.703-.226h-.731z"/></g><g><path fill="#161717" d="M43.686 52.04h.928v.394h-.928v.477h1.012v.394h-1.434V51.14h1.434v.394h-1.012z"/></g><g><path fill="#161717" d="M46.132 53.333h-.253l-.9-2.165h.478l.534 1.378.535-1.378h.478z"/></g><g><path fill="#161717" d="M48.943 52.265a.677.677 0 0 1-.196.506c-.113.14-.281.197-.478.197a.617.617 0 0 1-.478-.197.678.678 0 0 1-.197-.506c0-.197.056-.366.197-.506.112-.14.28-.197.478-.197.197 0 .337.056.478.197.14.112.196.28.196.506zm-1.77 0c0 .31.084.59.308.787.225.197.478.31.788.31.309 0 .562-.085.787-.31.197-.225.31-.478.31-.787 0-.31-.085-.562-.31-.787a1.154 1.154 0 0 0-.787-.31c-.31 0-.563.085-.788.31-.196.196-.309.478-.309.787z"/></g><g><path fill="#161717" d="M51.277 53.333h-1.406v-2.165h.422v1.772h.984z"/></g><g><path fill="#161717" d="M53.357 51.168v1.266c0 .309-.084.534-.253.674a.827.827 0 0 1-.618.253.827.827 0 0 1-.619-.253c-.168-.168-.253-.393-.253-.674v-1.266h.422v1.237c0 .197.056.338.14.422.085.084.197.14.31.14.14 0 .225-.056.31-.14.083-.084.14-.225.14-.422v-1.237z"/></g><g><path fill="#161717" d="M54.791 51.562v1.771h-.45v-1.771h-.59v-.394h1.603v.394z"/></g><g><path fill="#161717" d="M56.506 52.94h.253v.393h-.956v-.393h.253v-1.35h-.253v-.394h.956v.394h-.253z"/></g><g><path fill="#161717" d="M59.008 52.265a.808.808 0 0 1-.196.506c-.113.14-.282.197-.478.197a.617.617 0 0 1-.478-.197.677.677 0 0 1-.197-.506c0-.197.056-.366.197-.506.112-.14.28-.197.478-.197.196 0 .337.056.478.197a.697.697 0 0 1 .196.506zm-1.77 0c0 .31.084.59.308.787.225.197.478.31.788.31.309 0 .562-.085.787-.31.225-.225.337-.478.337-.787 0-.31-.112-.562-.337-.787a1.154 1.154 0 0 0-.787-.31c-.31 0-.563.085-.788.31a.914.914 0 0 0-.309.787z"/></g><g><path fill="#161717" d="M61.595 53.333h-.253l-1.012-1.377v1.377h-.422v-2.165h.253l1.04 1.378v-1.378h.422v2.165z"/></g></g></g></g></svg>