<svg xmlns="http://www.w3.org/2000/svg" width="216.653" height="122.693" viewBox="0 0 216.653 122.693"><g transform="translate(1.321 0)"><g transform="translate(0 0)"><g transform="translate(1.679 0)"><g transform="translate(0)"><path d="M111.155,24.1a1.548,1.548,0,0,1-.212.864,12.221,12.221,0,0,0-.906-3.313,11.1,11.1,0,0,0-9.769-6.923c-4.389-.326-8.806-.184-13.224-.085-.835.014-1.671-.042-2.492-.042-13.8,0-27.594-.042-41.4.028-4.2.014-8.4-.057-12.6,0-3.525.042-7.051-.028-10.576-.014a12.933,12.933,0,0,0-6.612,1.656A11.429,11.429,0,0,0,7.83,24.258c-.042.184-.085.354-.127.524a16.251,16.251,0,0,1,1.741-9.1A20.693,20.693,0,0,1,12.969,11.3q3.525-3.674,7.079-7.32A12,12,0,0,1,29,.118H60.271C69.7.118,79.13.2,88.559.09A13.469,13.469,0,0,1,99.22,4.578c2.563,2.761,5.224,5.408,7.8,8.141a14.331,14.331,0,0,1,3.964,9.939A2.53,2.53,0,0,0,111.155,24.1Z" transform="translate(-7.646 -0.088)" fill="#042f5c"/><path d="M100.986,204H17.794A10.187,10.187,0,0,1,7.6,193.809V108.394A10.187,10.187,0,0,1,17.794,98.2H101a10.187,10.187,0,0,1,10.194,10.194v85.415A10.208,10.208,0,0,1,100.986,204Z" transform="translate(-7.6 -84.309)" fill="none" stroke="#042f5c" stroke-miterlimit="10" stroke-width="6"/><path d="M100.986,204H17.794A10.187,10.187,0,0,1,7.6,193.809V108.394A10.187,10.187,0,0,1,17.794,98.2H101a10.187,10.187,0,0,1,10.194,10.194v85.415A10.208,10.208,0,0,1,100.986,204Z" transform="translate(99.459 -84.309)" fill="none" stroke="#042f5c" stroke-miterlimit="10" stroke-width="6"/></g></g><line x2="106.995" transform="translate(1.388 51.082)" fill="none" stroke="#042f5c" stroke-miterlimit="10" stroke-width="0.969" opacity="0.5"/><line x2="106.995" transform="translate(106.894 51.082)" fill="none" stroke="#042f5c" stroke-miterlimit="10" stroke-width="0.969" opacity="0.5"/><line x2="106.995" transform="translate(0 85.788)" fill="none" stroke="#042f5c" stroke-miterlimit="10" stroke-width="0.969" opacity="0.5"/></g></g></svg>