<svg xmlns="http://www.w3.org/2000/svg" width="81" height="114" viewBox="0 0 81 114"><g><g><path fill="#406081" d="M42.457 106.37h20.795v-3.781H42.457v-3.781h24.576a1.89 1.89 0 0 0 1.891-1.891V55.325a1.89 1.89 0 0 0-1.89-1.89H42.456v-3.781h7.562v-3.781h-5.343l8.668-10.113c.294-.342.456-.78.456-1.23v-3.782h3.78v-3.78H53.8v-3.782h7.562v-3.78H53.8v-3.782h11.343V34.53c0 .45.161.888.456 1.23l8.668 10.113H57.58v3.78h18.905v60.498h-34.03zm0-49.154h22.686v37.81H42.457zM53.8 4.28h11.343v7.562H53.8zm-13.234 109.65h37.81a1.89 1.89 0 0 0 1.891-1.89V47.763c0-.451-.161-.888-.456-1.23L68.924 33.83V2.39A1.89 1.89 0 0 0 67.034.5H51.908a1.89 1.89 0 0 0-1.89 1.89v31.44L39.132 46.533c-.295.342-.456.779-.456 1.23v64.278a1.89 1.89 0 0 0 1.89 1.89z"/></g><g><path fill="#406081" d="M4.646 57.216h26.467v5.671c0 7.31-5.924 13.234-13.233 13.234-7.31 0-13.234-5.924-13.234-13.234zm0-7.562h26.467v3.78H4.646zm20.35 60.497H10.763l7.117-3.558zm-9.007-30.36v23.52l-14.078 7.038a1.89 1.89 0 0 0 .844 3.583h30.249a1.89 1.89 0 0 0 .845-3.592l-14.079-7.03V79.79c8.605-.97 15.112-8.243 15.124-16.903V47.763a1.89 1.89 0 0 0-1.89-1.89H2.755a1.89 1.89 0 0 0-1.89 1.89v15.124c.013 8.66 6.519 15.932 15.124 16.904z"/></g><g><path fill="#406081" d="M25.442 34.53a1.89 1.89 0 1 1 0 3.78 1.89 1.89 0 0 1 0-3.78zm0 7.562a5.672 5.672 0 1 0 0-11.344 5.672 5.672 0 0 0 0 11.344z"/></g><g><path fill="#406081" d="M12.208 26.967a1.89 1.89 0 1 1 0 3.782 1.89 1.89 0 0 1 0-3.782zm0 7.563a5.672 5.672 0 1 0 0-11.344 5.672 5.672 0 0 0 0 11.344z"/></g></g></svg>