<svg xmlns="http://www.w3.org/2000/svg" width="29" height="29" viewBox="0 0 29 29"><g><g><path fill="#f3f4f6" d="M24.165 12.794h-2.843V9.95h-1.421v2.843h-2.843v1.421H19.9v2.843h1.421v-2.843h2.843zm-7.107 6.112c0-2.274-1.564-3.27-2.701-4.122-.284-.142-.569-.285-.71-.427-.285-.142-.57-.426-.57-.853 0-.426.285-.853.57-.995 1.279-.853 2.274-1.848 2.274-3.838 0-1.563-.711-2.559-1.28-3.127h.995l.142-.142.996-.995.426-.427h-5.97c-3.98 0-5.828 2.701-5.828 5.118 0 2.132 1.705 4.264 4.548 4.264h.569c-.142.284-.142.427-.142.71 0 .712.142 1.138.426 1.422-1.848.143-3.27.569-4.406 1.28-1.99 1.137-2.133 2.7-2.133 3.411 0 1.99 1.848 4.265 5.828 4.265 5.118 0 6.966-2.985 6.966-5.544zM28.43 2.843v22.744a2.851 2.851 0 0 1-2.843 2.843H2.843A2.851 2.851 0 0 1 0 25.587V2.843A2.851 2.851 0 0 1 2.843 0h22.744a2.851 2.851 0 0 1 2.843 2.843zm-16.205 13.93c1.848 1.422 2.558 2.133 2.558 3.128 0 1.422-1.279 2.843-3.411 2.843-2.843 0-4.265-1.564-4.265-3.127 0-1.422 1.138-2.133 2.133-2.417.852-.284 2.132-.426 2.558-.426h.427zm-1.137-4.69c-1.99 0-2.843-2.417-2.843-4.123 0-1.848.995-2.416 1.847-2.416 2.133 0 2.986 2.843 2.986 4.264 0 2.133-1.99 2.275-1.99 2.275z"/></g></g></svg>