<svg xmlns="http://www.w3.org/2000/svg" width="29" height="29" viewBox="0 0 29 29"><g><g><path fill="#f3f4f6" d="M1.762 4.18A2.511 2.511 0 0 1 4.27 1.673h20.18a2.511 2.511 0 0 1 2.509 2.509v20.18a2.511 2.511 0 0 1-2.509 2.508H4.27a2.511 2.511 0 0 1-2.508-2.508zM4.27 28.542h20.18a4.186 4.186 0 0 0 4.181-4.18V4.18A4.186 4.186 0 0 0 24.451 0H4.27A4.186 4.186 0 0 0 .088 4.18v20.18a4.186 4.186 0 0 0 4.181 4.181z"/></g><g><path fill="#f3f4f6" d="M14.36 8.418a5.86 5.86 0 0 1 5.853 5.853 5.86 5.86 0 0 1-5.853 5.853 5.86 5.86 0 0 1-5.853-5.853 5.86 5.86 0 0 1 5.853-5.853zm0 13.378c4.15 0 7.526-3.376 7.526-7.525 0-4.15-3.376-7.526-7.526-7.526s-7.525 3.376-7.525 7.526 3.376 7.525 7.525 7.525z"/></g><g><path fill="#f3f4f6" d="M22.722 5.073a.837.837 0 0 1 0 1.672.837.837 0 0 1 0-1.672zm0 3.345a2.511 2.511 0 0 0 2.509-2.509A2.511 2.511 0 0 0 22.722 3.4a2.511 2.511 0 0 0-2.508 2.509 2.511 2.511 0 0 0 2.508 2.509z"/></g></g></svg>