<svg xmlns="http://www.w3.org/2000/svg" width="17" height="16" viewBox="0 0 17 16"><g><g><path fill="#848393" d="M5.072 8.159a13.272 13.272 0 0 1-2.2-3.324l-.065-.143c.041-.002.07-.005.097-.005.445 0 .89.001 1.335-.002.065 0 .099.022.128.079.45.873 1.01 1.672 1.658 2.41l.058.062a11.996 11.996 0 0 0 2.41-4.073H0V1.646h5.32V.131h1.522v1.514h5.322v1.528h-.104c-.667 0-1.332.002-1.998-.002-.092-.001-.13.023-.16.114a13.063 13.063 0 0 1-2.004 3.898c-.25.334-.521.653-.79.988l.055.06c.591.584 1.18 1.17 1.775 1.75.069.067.085.119.048.21-.176.453-.342.908-.512 1.363-.007.02-.015.038-.023.056-.785-.788-1.57-1.57-2.358-2.356L2.29 13.056 1.215 11.97 5.072 8.16z"/></g><g><path fill="#848393" d="M12.552 8.238l1.235 3.294h-2.47c.41-1.093.82-2.183 1.235-3.294zm2.662 7.1h1.518l-.025-.08-3.362-8.97c-.023-.06-.052-.078-.115-.078-.45.003-.9.003-1.352 0-.067-.002-.095.023-.118.085L8.532 14.9c-.055.145-.107.29-.163.442.486 0 .96 0 1.434.002.07.002.096-.023.119-.084.263-.708.53-1.415.792-2.123.023-.06.05-.079.113-.079 1.153.002 2.304.002 3.456 0 .062 0 .087.02.107.075.118.324.24.645.36.967l.464 1.238z"/></g></g></svg>