<svg xmlns="http://www.w3.org/2000/svg" width="140" height="122" viewBox="0 0 140 122"><g><g><g><path fill="#f39200" d="M13.222 121.529V.271h1.613v121.258z"/></g><g><path fill="#1c9fd4" d="M44.31 90.763V.27h1.613v90.492z"/></g><g><path fill="#f39200" d="M47.149 90.763V.27h1.612v90.492z"/></g><g><path fill="#f39200" d="M64.95 90.763V.27h1.613v90.492z"/></g><g><path fill="#e30613" d="M67.853 90.763V.27h1.613v90.492z"/></g><g><path fill="#008d3f" d="M70.756 90.763V.27h1.612v90.492z"/></g><g><path fill="#7e1863" d="M73.594 90.763V.27h1.612v90.492z"/></g><g><path fill="#fe0" d="M76.496 90.763V.27h1.613v90.492z"/></g><g><path fill="#1c9fd4" d="M89.654 90.763V.27h1.935v90.492z"/></g><g><path fill="#7e1863" d="M94.233 90.763V.27h1.613v90.492z"/></g><g><path fill="#e30613" d="M98.62 90.763V.27h1.612v90.492z"/></g><g><path fill="#008e36" d="M110.552 90.763V22.78h1.612v67.982z"/></g><g><path fill="#f39200" d="M122.484 90.763V22.78h1.612v67.982z"/></g><g><path fill="#7e1863" d="M132.804 90.763V.27h1.612v90.492z"/></g><g><path fill="#1c9fd4" d="M8.772 121.529V.271h3.16v121.258z"/></g><g><path fill="#e30613" d="M16.254 121.529V.271h3.16v121.258z"/></g><g><path fill="#7e1863" d="M22.123 92.117V.271h3.16v90.427s-1.87.194-3.16 1.42z"/></g><g><path fill="#008d3f" d="M28.057 90.763V.27h3.16v90.492z"/></g><g><path fill="#fe0" d="M32.443 90.763V.27h3.16v90.492z"/></g><g><path fill="#22387d" d="M53.083 90.763V.27h3.16v90.492z"/></g><g><path fill="#1c9fd4" d="M57.34 90.763V.27h4.773v90.492z"/></g><g><path fill="#f39200" d="M82.494 90.763V.27h4.773v90.492z"/></g><g><path fill="#e30613" d="M114.938 90.698V22.845h4.772v67.853z"/></g><g><path fill="#008d3f" d="M110.552 16.395V.271h1.612v16.124z"/></g><g><path fill="#f39205" d="M122.484 16.395V.271h1.612v16.124z"/></g><g><path fill="#e20717" d="M114.938 16.395V.271h4.772v16.124z"/></g><g><path fill="#e30613" d="M36.829 90.763V.27h6.192v90.492z"/></g><g><path fill="#22387d" d="M0 4.592v112.616c0 1.225.645 2.257 1.612 3.031V1.56C.645 2.334 0 3.366 0 4.592z"/></g><g><path fill="#7e1863" d="M2.902.786v120.227c.516.193 1.032.387 1.613.451V.335C3.935.4 3.418.593 2.902.786z"/></g><g><path fill="#008d3f" d="M139.899 4.527v86.171h-1.613V1.496c1.032.774 1.613 1.87 1.613 3.031z"/></g><g><path fill="#1c9fd4" d="M136.996.786v89.977h-1.612V.335c.58.065 1.096.258 1.612.452z"/></g><g><path fill="#1c9fd4" d="M24.316 112.177V100.18h3.032v11.997zm1.548-13.094c-.516 0-.903-.129-1.29-.451-.322-.323-.516-.71-.516-1.161 0-.452.194-.839.516-1.161.323-.323.774-.452 1.29-.452s.968.13 1.29.452c.323.322.516.71.516 1.16 0 .452-.193.84-.516 1.162-.387.322-.774.451-1.29.451z"/></g><g><path fill="#f5f5f5" d="M36.7 95.213h.194c1.16 0 2.322.258 3.418.774 1.161.516 2.128 1.161 3.031 2.064l-2.193 2c-.58-.516-1.354-.903-2.128-1.226-.838-.322-1.548-.451-2.193-.451h-.193c-.71 0-1.355.129-2 .451-.645.323-.903.774-.903 1.42 0 .515.258.902.71 1.16.516.258 1.16.387 2.064.516l1.354.13c1.87.193 3.354.709 4.386 1.547 1.032.774 1.548 2 1.548 3.612 0 1.548-.645 2.838-1.87 3.741-1.226.968-2.774 1.42-4.709 1.42h-.129c-1.612 0-2.967-.323-4.192-.968-1.226-.645-2.193-1.42-2.903-2.451l2.193-2a6.138 6.138 0 0 0 1.935 1.613c.839.451 1.87.645 3.031.645h.258c.968 0 1.742-.194 2.322-.58.581-.388.903-.84.903-1.484 0-.645-.258-1.161-.774-1.484-.516-.322-1.29-.516-2.322-.645l-1.354-.129c-3.805-.451-5.676-2-5.676-4.644 0-1.548.58-2.773 1.742-3.676 1.16-.839 2.644-1.355 4.45-1.355z"/></g><g><path fill="#f5f5f5" d="M61.339 99.986c1.677 0 2.967.516 3.87 1.548s1.354 2.451 1.354 4.257v6.321h-3.031v-6.063c0-2.064-.903-3.096-2.645-3.096-.903 0-1.612.258-2.128.839-.516.58-.774 1.419-.774 2.515v5.87h-3.032v-6.128c0-2.064-.903-3.096-2.644-3.096-.903 0-1.613.258-2.129.839-.516.58-.774 1.419-.774 2.515v5.87h-3.031V100.18h2l.193 1.87c.838-1.354 2.193-2.064 4.128-2.064 2.064 0 3.483.774 4.257 2.322a3.984 3.984 0 0 1 1.677-1.741c.838-.323 1.741-.58 2.709-.58z"/></g><g><path fill="#f5f5f5" d="M72.949 108.5c-.58-.58-.903-1.354-.903-2.322 0-.967.258-1.741.903-2.322.645-.58 1.354-.903 2.193-.903.838 0 1.548.323 2.193.903.58.58.903 1.355.903 2.322 0 .968-.258 1.742-.903 2.322-.645.58-1.355.903-2.193.903a3.071 3.071 0 0 1-2.193-.903zm8.062-8.32h-2.064l-.193 1.677c-.968-1.226-2.322-1.87-4-1.87-1.676 0-3.095.58-4.192 1.805-1.096 1.161-1.677 2.645-1.677 4.386 0 1.742.58 3.225 1.677 4.386 1.097 1.226 2.516 1.806 4.193 1.806 1.677 0 3.031-.645 3.999-1.87l.193 1.677h2.064z"/></g><g><path fill="#f5f5f5" d="M91.911 102.953h-1.225c-1.097 0-1.935.323-2.516 1.032-.58.71-.838 1.613-.838 2.774v5.418H84.3V100.18h2.064l.323 2.58c.967-1.87 2.58-2.774 4.773-2.774h.516v2.967z"/></g><g><path fill="#f5f5f5" d="M97.845 103.147v9.094H94.75v-9.094h-1.548v-2.967h1.548v-4.064h3.096v4.064h1.548v2.967z"/></g><g><path fill="#f5f5f5" d="M104.23 104.243h5.096c1.29 0 2.193.258 2.838.839.645.58.968 1.29.968 2.257 0 2.064-1.226 3.096-3.741 3.096h-5.16zm0-7.16h4.322c1.42 0 2.387.259 2.903.775s.774 1.225.774 2.064c0 1.87-1.161 2.773-3.612 2.773h-4.386v-5.547zm-1.934-1.74v16.77h6.708c3.934 0 5.87-1.549 5.87-4.645 0-1.032-.323-2-.904-2.709-.58-.71-1.419-1.225-2.515-1.419 1.741-.58 2.58-1.806 2.58-3.676 0-2.903-1.806-4.322-5.547-4.322h-6.128z"/></g><g><path fill="#f5f5f5" d="M118.614 106.178c0-1.29.451-2.386 1.29-3.225.838-.838 1.87-1.29 3.096-1.29 1.16 0 2.257.452 3.096 1.29.838.903 1.29 1.935 1.29 3.225s-.452 2.387-1.29 3.225c-.839.839-1.87 1.29-3.096 1.29s-2.258-.451-3.096-1.29c-.839-.838-1.29-1.935-1.29-3.225zm10.513-6.127h-1.225l-.065 2.709a5.118 5.118 0 0 0-2-2.064 5.756 5.756 0 0 0-2.902-.774c-1.677 0-3.096.58-4.257 1.806-1.16 1.225-1.741 2.644-1.741 4.386 0 1.741.58 3.16 1.741 4.386 1.161 1.225 2.58 1.806 4.257 1.806 1.097 0 2.064-.258 2.903-.774.838-.516 1.548-1.226 2-2.064l.064 2.709h1.225z"/></g><g><path fill="#f5f5f5" d="M139.899 101.728h-.645c-1.613 0-2.838.516-3.612 1.483-.774.968-1.161 2.258-1.161 3.87v5.16h-1.742v-11.997h1.226l.193 3.225c.452-1.096 1.161-2 2.064-2.58.968-.58 2.064-.838 3.354-.838h.323z"/></g><g><path fill="#fe0" d="M106.94 19.62c0-1.741 1.032-3.096 2.386-3.225V.27h-4.773v90.493h4.773V22.845c-1.354-.129-2.386-1.483-2.386-3.225z"/></g><g><path fill="#22387d" d="M125.193.27v16.125h.774c1.419 0 2.515 1.42 2.515 3.225 0 1.806-1.16 3.225-2.515 3.225h-.774v67.853h4.773V.271z"/></g><g><g><path fill="#f5f5f5" d="M57.275 117.466v4.063h-.967v-4.063h-1.355v-.903h3.677v.903z"/></g><g><path fill="#f5f5f5" d="M63.338 119.078c0 .452-.129.839-.451 1.161-.258.323-.645.451-1.097.451-.451 0-.774-.128-1.096-.451-.323-.322-.452-.71-.452-1.161 0-.451.13-.838.452-1.161.258-.322.645-.451 1.096-.451.452 0 .774.129 1.097.451.322.258.451.645.451 1.161zm-4.063 0c0 .71.193 1.29.71 1.806.515.451 1.096.71 1.805.71.71 0 1.355-.194 1.806-.71.452-.516.71-1.096.71-1.806s-.194-1.29-.71-1.806c-.516-.451-1.096-.71-1.806-.71s-1.29.194-1.806.71c-.516.452-.71 1.097-.71 1.806z"/></g><g><path fill="#f5f5f5" d="M69.466 116.563v2.902c0 .71-.194 1.225-.58 1.548-.388.387-.84.58-1.42.58s-1.032-.193-1.419-.58c-.387-.387-.58-.903-.58-1.548v-2.902h.967v2.838c0 .451.13.773.323.967.193.194.451.322.71.322.322 0 .515-.128.709-.322.193-.194.322-.516.322-.967v-2.838z"/></g><g><path fill="#f5f5f5" d="M72.562 117.466c.322 0 .645.064.838.257.194.194.323.387.323.71 0 .322-.13.58-.323.71-.193.193-.516.258-.838.258h-.774v-1.935zm-1.742-.903h.13zm.13 0v4.966h.967v-1.226h.516c.258 0 .387.065.516.13.129.064.258.257.451.58l.323.516h1.096l-.451-.645c-.258-.452-.516-.774-.71-.903a1.76 1.76 0 0 0 .774-.58c.194-.259.258-.581.258-.968 0-.58-.193-1.032-.58-1.354-.387-.323-.968-.516-1.613-.516z"/></g><g><path fill="#f5f5f5" d="M77.335 120.626h.58v.903h-2.193v-.903h.58v-3.096h-.58v-.903h2.193v.903h-.58z"/></g><g><path fill="#f5f5f5" d="M81.011 116.498c.387 0 .71.065 1.096.194.323.129.645.322.903.58l-.645.58c-.193-.128-.387-.257-.645-.322-.258-.064-.451-.129-.645-.129h-.064c-.194 0-.387.065-.58.13-.194.064-.259.257-.259.45 0 .13.065.259.194.323.129.065.322.129.645.129l.387.065c.58.064.967.193 1.29.451.322.258.451.58.451 1.096 0 .452-.193.839-.516 1.097-.387.258-.838.387-1.419.451h-.064c-.452 0-.903-.064-1.226-.258a2.33 2.33 0 0 1-.838-.709l.645-.58c.129.193.322.322.58.451.258.129.581.193.903.193h.065a1.3 1.3 0 0 0 .71-.193c.193-.129.257-.258.257-.452 0-.193-.064-.322-.258-.451-.129-.064-.387-.129-.71-.194l-.386-.064c-1.097-.129-1.677-.58-1.677-1.354 0-.452.193-.839.516-1.097.322-.193.71-.387 1.29-.387z"/></g><g><path fill="#f5f5f5" d="M89.073 121.529h-.967v-3.16l-1.484 1.87-1.483-1.87v3.16h-.968v-4.966h.58l1.871 2.386 1.87-2.386h.581z"/></g><g><path fill="#f5f5f5" d="M94.62 117.466c.323 0 .645.064.839.257.193.194.322.387.322.71 0 .322-.129.58-.322.71-.194.193-.516.258-.839.258h-.774v-1.935zm-1.741 4.063h1.096v-1.226h.516c.258 0 .387.065.516.13.13.064.258.257.452.58l.322.516h1.097l-.452-.645c-.258-.452-.516-.774-.71-.903a1.76 1.76 0 0 0 .775-.58c.193-.259.258-.581.258-.968 0-.58-.194-1.032-.58-1.354-.388-.323-.968-.516-1.613-.516h-1.677z"/></g><g><path fill="#f5f5f5" d="M98.748 118.562h2.129v.903h-2.129v1.096h2.322v.903h-3.29v-4.966h3.29v.903h-2.322z"/></g><g><path fill="#f5f5f5" d="M104.36 121.529h-.58l-2.065-4.966h1.097l1.225 3.16 1.226-3.16h1.096z"/></g><g><path fill="#f5f5f5" d="M110.81 119.078c0 .452-.13.839-.452 1.161-.258.323-.645.451-1.096.451-.452 0-.774-.128-1.097-.451-.322-.322-.451-.71-.451-1.161 0-.451.129-.838.451-1.161.258-.322.645-.451 1.097-.451.451 0 .774.129 1.096.451.323.258.452.645.452 1.161zm-4.064 0c0 .71.194 1.355.71 1.806.516.451 1.096.71 1.806.71s1.29-.194 1.806-.71c.451-.516.71-1.096.71-1.806s-.194-1.29-.71-1.806c-.516-.451-1.097-.71-1.806-.71-.71 0-1.29.194-1.806.71-.452.452-.71 1.097-.71 1.806z"/></g><g><path fill="#f5f5f5" d="M116.163 121.529h-3.225v-4.966h.968v4.063h2.257z"/></g><g><path fill="#f5f5f5" d="M120.936 116.563v2.902c0 .71-.193 1.225-.58 1.548-.387.387-.839.58-1.42.58-.58 0-1.031-.193-1.418-.58-.387-.387-.581-.903-.581-1.548v-2.902h.968v2.838c0 .451.129.773.322.967.194.194.452.322.71.322.322 0 .516-.128.709-.322.194-.194.323-.516.323-.967v-2.838z"/></g><g><path fill="#f5f5f5" d="M124.225 117.466v4.063h-1.032v-4.063h-1.354v-.903h3.676v.903z"/></g><g><path fill="#f5f5f5" d="M128.16 120.626h.58v.903h-2.193v-.903h.58v-3.096h-.58v-.903h2.193v.903h-.58z"/></g><g><path fill="#f5f5f5" d="M133.9 119.078c0 .452-.193.839-.451 1.161-.258.323-.645.451-1.097.451-.451 0-.774-.128-1.096-.451-.323-.322-.452-.71-.452-1.161 0-.451.13-.838.452-1.161.258-.322.645-.451 1.096-.451.452 0 .774.129 1.097.451.258.258.451.645.451 1.161zm-4.063 0c0 .71.193 1.355.71 1.806.515.451 1.096.71 1.805.71.71 0 1.29-.194 1.806-.71s.774-1.096.774-1.806-.258-1.29-.774-1.806c-.516-.451-1.096-.71-1.806-.71s-1.29.194-1.806.71a2.096 2.096 0 0 0-.71 1.806z"/></g><g><path fill="#f5f5f5" d="M139.834 121.529h-.58l-2.322-3.16v3.16h-.968v-4.966h.58l2.387 3.16v-3.16h.968v4.966z"/></g></g></g></g></svg>