<svg xmlns="http://www.w3.org/2000/svg" width="35" height="29" viewBox="0 0 35 29"><g><g><path fill="#f3f4f6" d="M34.877 3.365a14.35 14.35 0 0 1-4.123 1.13A7.199 7.199 0 0 0 33.91.526a14.373 14.373 0 0 1-4.558 1.742A7.168 7.168 0 0 0 24.114 0a7.177 7.177 0 0 0-7.178 7.177c0 .563.064 1.11.186 1.636-5.965-.3-11.253-3.157-14.793-7.5a7.144 7.144 0 0 0-.972 3.609 7.174 7.174 0 0 0 3.193 5.974 7.149 7.149 0 0 1-3.251-.898v.09a7.181 7.181 0 0 0 5.757 7.038 7.187 7.187 0 0 1-3.241.123 7.184 7.184 0 0 0 6.704 4.984 14.4 14.4 0 0 1-8.914 3.073 14.6 14.6 0 0 1-1.712-.1 20.315 20.315 0 0 0 11.002 3.224c13.202 0 20.42-10.936 20.42-20.42 0-.312-.006-.621-.02-.93a14.588 14.588 0 0 0 3.582-3.715"/></g></g></svg>