<svg xmlns="http://www.w3.org/2000/svg" width="110" height="94" viewBox="0 0 110 94"><g><g><path fill="#406081" d="M106.44 90.458H4.054V76.014h12.384c2.103 0 2.103-3.186 0-3.186h-3.59V69.64h26.149v3.187H23.873c-2.103 0-2.103 3.186 0 3.186h82.567zM4.054 28.007H56.67c2.103 0 2.103-3.186 0-3.186H42.332a8.256 8.256 0 0 1 4.78-5.99c3.292-1.445 4.099-1.679 4.099-6.925h8.072c0 3.738-.319 4.97 4.1 6.924a8.256 8.256 0 0 1 4.779 5.99h-4.057c-2.103 0-2.103 3.187 0 3.187h42.335v14.445H4.054zm13.722-9.155c4.418-1.955 4.1-3.102 4.1-6.925h8.05c0 5.183.808 5.459 4.1 6.925a8.256 8.256 0 0 1 4.78 5.99h-25.81a8.256 8.256 0 0 1 4.78-5.99zm3.208-15.23h9.877V8.74h-9.877zm39.212 0V8.74H50.32V3.62zm16.25 15.23c4.419-1.955 4.1-3.102 4.1-6.925h8.05c0 5.183.808 5.459 4.1 6.925a8.256 8.256 0 0 1 4.78 5.99h-25.81a8.256 8.256 0 0 1 4.78-5.99zm3.208-15.23h9.877V8.74h-9.877zm25.384 45.202h-4.185v-3.186h4.185zm-7.392-3.186v3.186H71.497v-3.186zm-29.335 0v3.186H42.183v-3.186zm-29.314 0v3.186h-26.15v-3.186zm-33.541 0H9.64v3.186H5.456zm4.206 27.19H5.456V69.64H9.64c.022 0 .022 3.187.022 3.187zm32.521 0V69.64h26.149v3.187zm29.314 0V69.64h11.81c2.104 0 2.104-3.186 0-3.186H4.055V52.01H106.44v14.445H90.742c-2.103 0-2.103 3.186 0 3.186h6.904v3.187zm33.541 0h-4.185V69.64h4.185zm4.588-28.783V26.414c0-.871-.722-1.593-1.593-1.593h-7.307a11.476 11.476 0 0 0-6.734-8.9c-2.57-1.127-2.209-.638-2.209-4.44 1.19-.871.914-1.36.914-8.858 0-1.211-.999-2.21-2.21-2.21H78.656c-1.211 0-2.21.999-2.21 2.21 0 7.583-.276 7.987.914 8.858 0 2.23.276 3.335-.765 3.802-2.018.892-4.652 1.87-6.691 5.29-1.976-3.357-4.63-4.377-6.67-5.269-.935-.403-.765-1.04-.765-3.802 1.19-.87.914-1.36.914-8.858 0-1.21-.999-2.21-2.21-2.21H49.342c-1.211 0-2.21 1-2.21 2.21 0 7.583-.276 7.987.914 8.858v2.613c0 2.145-4.227.998-7.456 6.479-3.208-5.438-7.456-4.355-7.456-6.48v-2.612c1.19-.87.913-1.36.913-8.858 0-1.21-.998-2.21-2.209-2.21H20.006c-1.21 0-2.209 1-2.209 2.21 0 7.583-.276 7.987.914 8.858 0 3.845.34 3.314-2.21 4.44a11.476 11.476 0 0 0-6.733 8.9H2.46c-.871 0-1.594.722-1.594 1.593v17.63a1.57 1.57 0 0 0 1.402 1.573v3.207a1.586 1.586 0 0 0-1.402 1.572v17.631A1.57 1.57 0 0 0 2.27 69.62v3.208a1.586 1.586 0 0 0-1.402 1.571V92.03c0 .871.723 1.593 1.594 1.593h105.572c.871 0 1.593-.722 1.593-1.593V74.4a1.57 1.57 0 0 0-1.402-1.572V69.62a1.586 1.586 0 0 0 1.402-1.572v-17.63a1.57 1.57 0 0 0-1.402-1.573v-3.207c.786-.085 1.402-.765 1.402-1.593z"/></g></g></svg>