<svg xmlns="http://www.w3.org/2000/svg" width="145" height="206" viewBox="0 0 145 206"><g><g><g><g><path fill="#042f5c" d="M89.043 41.716a3.428 3.428 0 0 1-3.422-3.423 3.424 3.424 0 0 0-3.423-3.422 3.424 3.424 0 0 0-3.422 3.422c0 5.661 4.607 10.268 10.267 10.268a3.424 3.424 0 0 0 0-6.845z"/></g><g><path fill="#042f5c" d="M114.179 48.561a3.424 3.424 0 0 0 3.422-3.422 3.428 3.428 0 0 1 3.423-3.423 3.424 3.424 0 0 0 3.422-3.422 3.424 3.424 0 0 0-3.422-3.423c-5.661 0-10.268 4.607-10.268 10.268a3.424 3.424 0 0 0 3.423 3.422z"/></g><g><path fill="#042f5c" d="M3.295 48.561c1.819 0 3.295-1.533 3.295-3.422 0-3.775 2.955-6.846 6.59-6.846.712 0 1.443.144 2.234.442 1.045.4 2.208.216 3.098-.476.89-.688 1.383-1.8 1.314-2.95-.003-.086-.046-.353-.056-.438 0-3.775 2.956-6.845 6.59-6.845.894 0 1.76.184 2.577.544a3.193 3.193 0 0 0 3.437-.554c.952-.846 1.354-2.184 1.044-3.447-.32-1.29-.468-2.368-.468-3.388 0-7.55 5.912-13.69 13.18-13.69 5.424 0 10.225 3.405 12.232 8.672.435 1.14 1.423 1.954 2.596 2.129 1.167.178 2.34-.319 3.065-1.284 1.275-1.697 3.16-2.672 5.173-2.672 2.652 0 5.038 1.639 6.073 4.179.497 1.228 1.637 2.04 2.92 2.087 1.314.076 2.47-.68 3.05-1.865C84.64 11.799 91.39 7.49 98.852 7.49c10.903 0 19.77 9.21 19.77 20.464-.003.078-.017.339-.017.42 0 1.028.445 2.003 1.213 2.65a3.2 3.2 0 0 0 2.745.702 12.705 12.705 0 0 1 2.649-.278c7.269 0 13.18 6.14 13.18 13.69 0 1.89 1.476 3.423 3.295 3.423s3.295-1.533 3.295-3.422c0-11.326-8.867-20.536-19.77-20.536h-.205C123.38 11.114 112.272.645 98.852.645c-8.215 0-15.777 3.908-20.716 10.47-2.386-2.287-5.553-3.626-8.94-3.626-2.448 0-4.798.706-6.83 2.006-3.632-5.49-9.622-8.85-16.236-8.85-10.903 0-19.77 9.21-19.77 20.535-6.132 0-11.302 4.374-12.765 10.275C6.172 31.205 0 37.445 0 45.138c0 1.89 1.476 3.423 3.295 3.423z"/></g><g><path fill="#042f5c" d="M103.427 37.705a3.413 3.413 0 0 0 2.42 1.002c.876 0 1.752-.335 2.42-1.002a13.61 13.61 0 0 0 4.011-9.68c0-3.658-1.427-7.095-4.011-9.678-5.333-5.34-14.02-5.34-19.362-.004a3.425 3.425 0 0 0 0 4.84 3.418 3.418 0 0 0 4.84 0c2.67-2.663 7.013-2.667 9.682.003a6.786 6.786 0 0 1 2.006 4.84 6.797 6.797 0 0 1-2.006 4.839 3.418 3.418 0 0 0 0 4.84z"/></g><g><path fill="#042f5c" d="M144.135 56.54a3.236 3.236 0 0 0-2.448-1.134H49.426c-1.819 0-3.295 1.533-3.295 3.423 0 1.889 1.476 3.422 3.295 3.422h88.6l-12.784 126.165c-.66 4.956-3.654 10.74-9.915 10.74H29.655c-6.273 0-9.262-5.78-9.901-10.624L6.956 62.252h22.7c7.269 0 13.18-6.14 13.18-13.69S36.924 34.87 29.656 34.87c-1.82 0-3.295 1.533-3.295 3.422 0 1.89 1.476 3.423 3.294 3.423 3.635 0 6.59 3.07 6.59 6.845 0 3.776-2.955 6.846-6.59 6.846H3.295c-.933 0-1.825.41-2.448 1.133a3.513 3.513 0 0 0-.83 2.645L13.21 189.354C14.525 199.31 21.135 206 29.655 206h85.672c8.505 0 15.111-6.687 16.459-16.757l13.18-130.059a3.514 3.514 0 0 0-.83-2.646z"/></g><g><path fill="#042f5c" d="M29.351 69.11a3.423 3.423 0 0 0-3.108 3.71l10.268 116.37a3.422 3.422 0 1 0 6.818-.603L33.06 72.218c-.164-1.882-1.804-3.248-3.71-3.108z"/></g><g><path fill="#042f5c" d="M72.491 110.168c11.326 0 20.536 9.21 20.536 20.536 0 11.325-9.21 20.535-20.536 20.535-11.325 0-20.536-9.21-20.536-20.535 0-11.326 9.21-20.536 20.536-20.536zm-27.38 20.536c0 9.682 5.061 18.184 12.67 23.055l1.02 35.229a3.424 3.424 0 0 0 3.422 3.323h.099a3.428 3.428 0 0 0 3.323-3.522l-.927-31.844a27.264 27.264 0 0 0 7.772 1.14c2.7 0 5.306-.407 7.773-1.14l-.928 31.844a3.428 3.428 0 0 0 3.324 3.522h.099a3.424 3.424 0 0 0 3.422-3.323l1.02-35.23c7.609-4.87 12.67-13.372 12.67-23.054 0-9.04-4.421-17.041-11.191-22.032l.924-36.067a3.427 3.427 0 0 0-3.337-3.508c-1.91-.161-3.46 1.444-3.509 3.337l-.831 32.6a27.14 27.14 0 0 0-9.435-1.711c-3.32 0-6.489.623-9.436 1.711l-.832-32.6a3.424 3.424 0 0 0-3.422-3.337h-.086a3.427 3.427 0 0 0-3.337 3.508l.924 36.067c-6.77 4.99-11.192 12.992-11.192 22.032z"/></g><g><path fill="#042f5c" d="M105.066 192.31a3.422 3.422 0 0 0 3.405-3.12L118.74 72.82a3.423 3.423 0 0 0-3.107-3.71c-1.862-.143-3.543 1.23-3.71 3.109l-10.268 116.368a3.423 3.423 0 0 0 3.412 3.724z"/></g><g><path fill="#042f5c" d="M55.882 45.138a3.424 3.424 0 0 0 3.422-3.422 6.852 6.852 0 0 1 6.845-6.846 3.424 3.424 0 0 0 3.423-3.422 3.424 3.424 0 0 0-3.423-3.422c-7.55 0-13.69 6.14-13.69 13.69a3.424 3.424 0 0 0 3.423 3.422z"/></g><g><path fill="#042f5c" d="M49.655 14.335c-5.66 0-10.267 4.607-10.267 10.268a3.424 3.424 0 0 0 3.422 3.422 3.424 3.424 0 0 0 3.423-3.422 3.428 3.428 0 0 1 3.422-3.423 3.424 3.424 0 0 0 0-6.845z"/></g></g></g></g></svg>