<svg xmlns="http://www.w3.org/2000/svg" width="29" height="26" viewBox="0 0 29 26"><g><g><path fill="#848393" d="M8.852 13.274a22.046 22.046 0 0 1-3.654-5.52l-.108-.238c.068-.004.115-.008.161-.008.74 0 1.478.002 2.217-.003.11 0 .165.036.213.13a19.777 19.777 0 0 0 2.754 4.003c.029.032.06.062.097.103a19.927 19.927 0 0 0 4.002-6.765H.427v-2.52h8.837V-.06h2.529v2.516h8.84v2.537h-.174c-1.106 0-2.211.004-3.318-.003-.152-.002-.216.04-.265.19a21.699 21.699 0 0 1-3.328 6.475c-.416.555-.867 1.085-1.313 1.642l.091.098c.982.97 1.961 1.943 2.948 2.908.114.111.141.197.08.35-.292.752-.567 1.507-.85 2.263l-.038.093c-1.305-1.309-2.609-2.609-3.918-3.914l-6.315 6.315-1.788-1.801 6.407-6.334z"/></g><g><path fill="#848393" d="M21.278 13.407c.691 1.844 1.366 3.65 2.05 5.47h-4.1l2.05-5.47zM25.699 25.2h2.521c-.016-.052-.027-.095-.041-.134-1.862-4.966-3.725-9.931-5.585-14.898-.038-.1-.086-.131-.19-.131-.748.005-1.497.005-2.245 0-.113-.002-.16.04-.197.141-1.786 4.765-3.575 9.53-5.362 14.295-.091.24-.179.482-.272.734.808 0 1.596-.002 2.384.004.114.002.159-.04.197-.14.436-1.176.879-2.351 1.316-3.527.037-.099.082-.131.188-.131 1.914.003 3.826.003 5.74 0 .103 0 .144.034.178.125.195.537.397 1.071.598 1.606l.77 2.056z"/></g></g></svg>