<svg xmlns="http://www.w3.org/2000/svg" width="91" height="209" viewBox="0 0 91 209"><g><g><path fill="#042f5c" d="M83.538 97.682H6.962V69.836h76.576zm0 89.68c-.01 8.139-6.604 14.733-14.744 14.743H21.706c-8.14-.01-14.734-6.604-14.744-14.744v-67.973a14.821 14.821 0 0 1 1.556-6.593 14.664 14.664 0 0 1 13.188-8.151h47.088a14.665 14.665 0 0 1 13.188 8.15 14.846 14.846 0 0 1 1.556 6.594zM13.923 54.323a58.78 58.78 0 0 0 23.648-40.308 7.731 7.731 0 0 1 15.358.002 58.787 58.787 0 0 0 23.648 40.306v8.55H13.923zM90.5 101.163V66.355a3.48 3.48 0 0 0-3.48-3.48h-3.482V52.432a3.497 3.497 0 0 0-1.745-3.017 50.768 50.768 0 0 1-21.974-36.381 14.69 14.69 0 0 0-29.138-.002A50.771 50.771 0 0 1 8.716 49.41a3.481 3.481 0 0 0-1.754 3.022v10.443H3.48A3.48 3.48 0 0 0 0 66.355v34.808a3.481 3.481 0 0 0 3.48 3.48h2.285A21.79 21.79 0 0 0 0 119.389v67.973c.014 11.982 9.723 21.692 21.705 21.706h47.09c11.982-.014 21.691-9.724 21.705-21.706v-67.973a21.782 21.782 0 0 0-5.765-14.744h2.284a3.481 3.481 0 0 0 3.481-3.481z"/></g></g></svg>