<svg xmlns="http://www.w3.org/2000/svg" width="98" height="85" viewBox="0 0 98 85"><g><g><g><path fill="#f39200" d="M9.976 84.11V.41h1.114v83.7z"/></g><g><path fill="#1c9fd4" d="M31.436 62.873V.409h1.113v62.464z"/></g><g><path fill="#f39200" d="M33.395 62.873V.409h1.113v62.464z"/></g><g><path fill="#f39200" d="M45.683 62.873V.409h1.113v62.464z"/></g><g><path fill="#e30613" d="M47.686 62.873V.409H48.8v62.464z"/></g><g><path fill="#008d3f" d="M49.69 62.873V.409h1.113v62.464z"/></g><g><path fill="#7e1863" d="M51.648 62.873V.409h1.114v62.464z"/></g><g><path fill="#fe0" d="M53.652 62.873V.409h1.113v62.464z"/></g><g><path fill="#1c9fd4" d="M62.734 62.873V.409h1.336v62.464z"/></g><g><path fill="#7e1863" d="M65.895 62.873V.409h1.113v62.464z"/></g><g><path fill="#e30613" d="M68.923 62.873V.409h1.113v62.464z"/></g><g><path fill="#008e36" d="M77.16 62.873V15.947h1.112v46.926z"/></g><g><path fill="#f39200" d="M85.396 62.873V15.947h1.113v46.926z"/></g><g><path fill="#7e1863" d="M92.52 62.873V.409h1.112v62.464z"/></g><g><path fill="#1c9fd4" d="M6.905 84.11V.41h2.181v83.7z"/></g><g><path fill="#e30613" d="M12.069 84.11V.41h2.182v83.7z"/></g><g><path fill="#7e1863" d="M16.12 63.808V.409h2.182v62.42s-1.291.133-2.182.979z"/></g><g><path fill="#008d3f" d="M20.216 62.873V.409h2.182v62.464z"/></g><g><path fill="#fe0" d="M23.244 62.873V.409h2.181v62.464z"/></g><g><path fill="#22387d" d="M37.49 62.873V.409h2.182v62.464z"/></g><g><path fill="#1c9fd4" d="M40.43 62.873V.409h3.294v62.464z"/></g><g><path fill="#f39200" d="M57.792 62.873V.409h3.295v62.464z"/></g><g><path fill="#e30613" d="M80.187 62.828V15.992h3.294v46.836z"/></g><g><path fill="#008d3f" d="M77.16 11.54V.41h1.112v11.13z"/></g><g><path fill="#f39205" d="M85.396 11.54V.41h1.113v11.13z"/></g><g><path fill="#e20717" d="M80.187 11.54V.41h3.294v11.13z"/></g><g><path fill="#e30613" d="M26.271 62.873V.409h4.274v62.464z"/></g><g><path fill="#22387d" d="M.85 3.392v77.734c0 .846.445 1.559 1.113 2.093V1.299C1.295 1.835.85 2.547.85 3.393z"/></g><g><path fill="#7e1863" d="M2.853.765v82.988c.356.134.712.267 1.113.312V.454c-.4.044-.757.178-1.113.311z"/></g><g><path fill="#008d3f" d="M97.416 3.348v59.48h-1.113V1.255c.713.534 1.113 1.291 1.113 2.093z"/></g><g><path fill="#1c9fd4" d="M95.413.765v62.108H94.3V.453c.4.045.757.179 1.113.312z"/></g><g><path fill="#1c9fd4" d="M17.634 77.654v-8.281h2.093v8.28zm1.069-9.038c-.356 0-.624-.09-.89-.312-.223-.222-.357-.49-.357-.801 0-.312.134-.579.356-.802.223-.222.535-.311.89-.311.357 0 .668.089.891.311.223.223.356.49.356.802 0 .312-.133.579-.356.801-.267.223-.534.312-.89.312z"/></g><g><path fill="#161717" d="M26.182 65.945h.134c.801 0 1.603.178 2.36.534.8.356 1.469.801 2.092 1.425l-1.514 1.38c-.4-.356-.935-.624-1.469-.846-.579-.223-1.068-.312-1.514-.312h-.133c-.49 0-.935.09-1.38.312-.446.222-.624.534-.624.98 0 .355.178.623.49.8.356.179.801.268 1.425.357l.935.089c1.29.133 2.315.49 3.027 1.068.712.535 1.069 1.38 1.069 2.494 0 1.068-.446 1.959-1.292 2.582-.845.668-1.914.98-3.25.98h-.089c-1.113 0-2.048-.223-2.894-.668-.845-.446-1.513-.98-2.003-1.692l1.514-1.38c.311.4.757.8 1.335 1.113.58.311 1.292.445 2.093.445h.178c.668 0 1.202-.134 1.603-.4.4-.268.623-.58.623-1.025 0-.445-.178-.801-.534-1.024-.356-.222-.89-.356-1.603-.445l-.935-.09c-2.627-.31-3.918-1.38-3.918-3.205 0-1.068.4-1.914 1.202-2.537.802-.58 1.826-.935 3.072-.935z"/></g><g><path fill="#161717" d="M43.19 69.24c1.157 0 2.047.355 2.67 1.068.624.712.936 1.692.936 2.938v4.363h-2.093v-4.185c0-1.424-.623-2.137-1.825-2.137-.624 0-1.113.178-1.47.579-.356.4-.534.98-.534 1.736v4.052h-2.092v-4.23c0-1.424-.623-2.137-1.826-2.137-.623 0-1.113.178-1.469.579-.356.4-.534.98-.534 1.736v4.052H32.86v-8.281h1.38l.134 1.29c.579-.934 1.514-1.424 2.85-1.424 1.424 0 2.404.534 2.938 1.603a2.75 2.75 0 0 1 1.158-1.202c.578-.223 1.202-.4 1.87-.4z"/></g><g><path fill="#161717" d="M51.203 75.116c-.4-.4-.623-.935-.623-1.603 0-.668.178-1.202.623-1.603.446-.4.935-.623 1.514-.623s1.069.223 1.514.623c.4.401.623.935.623 1.603 0 .668-.178 1.202-.623 1.603-.445.4-.935.623-1.514.623a2.12 2.12 0 0 1-1.514-.623zm5.565-5.743h-1.424l-.134 1.157c-.668-.846-1.603-1.29-2.76-1.29-1.158 0-2.137.4-2.894 1.246-.757.801-1.158 1.825-1.158 3.027 0 1.202.401 2.226 1.158 3.028.757.846 1.736 1.246 2.894 1.246 1.157 0 2.092-.445 2.76-1.29l.134 1.157h1.424z"/></g><g><path fill="#161717" d="M64.293 71.287h-.846c-.757 0-1.336.223-1.737.713-.4.49-.578 1.113-.578 1.914v3.74h-2.093v-8.281h1.425l.222 1.78c.668-1.29 1.781-1.914 3.295-1.914h.356v2.048z"/></g><g><path fill="#161717" d="M68.389 71.42v6.278h-2.137v-6.277h-1.069v-2.048h1.069v-2.805h2.137v2.805h1.068v2.048z"/></g><g><path fill="#161717" d="M72.796 72.178h3.517c.89 0 1.514.178 1.96.578.445.401.667.89.667 1.559 0 1.424-.846 2.137-2.582 2.137h-3.562zm0-4.942h2.983c.98 0 1.647.178 2.004.534.356.356.534.846.534 1.425 0 1.29-.802 1.914-2.493 1.914h-3.028zm-1.335-1.202v11.575h4.63c2.716 0 4.051-1.068 4.051-3.205 0-.713-.222-1.38-.623-1.87-.4-.49-.98-.846-1.736-.98 1.202-.4 1.78-1.246 1.78-2.537 0-2.004-1.246-2.983-3.828-2.983z"/></g><g><path fill="#161717" d="M82.724 73.513c0-.89.312-1.647.89-2.226a2.924 2.924 0 0 1 2.138-.89c.801 0 1.558.311 2.137.89.579.623.89 1.336.89 2.226 0 .89-.311 1.648-.89 2.226a2.924 2.924 0 0 1-2.137.89 2.924 2.924 0 0 1-2.137-.89c-.579-.578-.89-1.335-.89-2.226zm7.257-4.23h-.846l-.044 1.87a3.533 3.533 0 0 0-1.38-1.424 3.973 3.973 0 0 0-2.004-.534c-1.157 0-2.137.4-2.938 1.246-.801.846-1.202 1.826-1.202 3.028s.4 2.181 1.202 3.027c.801.846 1.78 1.247 2.938 1.247.757 0 1.425-.178 2.004-.534.579-.357 1.068-.846 1.38-1.425l.044 1.87h.846z"/></g><g><path fill="#161717" d="M97.416 70.441h-.445c-1.113 0-1.959.356-2.493 1.024-.534.668-.801 1.559-.801 2.672v3.561h-1.202v-8.28h.846l.133 2.225c.312-.757.801-1.38 1.425-1.78.668-.401 1.424-.58 2.315-.58h.222z"/></g><g><path fill="#fe0" d="M74.666 13.766c0-1.202.712-2.137 1.647-2.226V.409H73.02v62.464h3.294V15.992c-.935-.09-1.647-1.024-1.647-2.226z"/></g><g><path fill="#22387d" d="M87.266.41v11.13h.534c.98 0 1.736.979 1.736 2.226 0 1.246-.801 2.226-1.736 2.226h-.534v46.836h3.294V.41z"/></g><g><g><path fill="#161717" d="M40.385 81.305v2.804h-.668v-2.804h-.935v-.624h2.538v.624z"/></g><g><path fill="#161717" d="M44.57 82.418c0 .311-.09.578-.312.8-.178.224-.445.313-.757.313a.976.976 0 0 1-.757-.312c-.222-.223-.311-.49-.311-.801 0-.312.089-.58.311-.802.178-.222.445-.311.757-.311s.534.089.757.311c.223.178.312.445.312.802zm-2.805 0c0 .49.133.89.49 1.246.356.312.756.49 1.246.49s.935-.134 1.247-.49c.311-.356.49-.757.49-1.246 0-.49-.134-.89-.49-1.247-.356-.312-.757-.49-1.247-.49-.49 0-.89.134-1.247.49-.356.312-.49.757-.49 1.247z"/></g><g><path fill="#161717" d="M48.8 80.681v2.004c0 .49-.134.846-.402 1.068-.267.267-.578.4-.979.4-.4 0-.712-.133-.98-.4-.267-.267-.4-.623-.4-1.068V80.68h.668v1.96c0 .31.089.533.222.667a.715.715 0 0 0 .49.223c.223 0 .356-.09.49-.223.133-.134.222-.356.222-.668v-1.959z"/></g><g><path fill="#161717" d="M50.936 81.305c.223 0 .445.044.579.178.133.133.223.267.223.49 0 .222-.09.4-.223.49-.134.133-.356.177-.579.177h-.534v-1.335zm-1.202-.624h.09zm.09 0v3.428h.667v-.846h.356c.178 0 .267.045.356.09.09.044.178.178.312.4l.223.356h.756l-.311-.445c-.178-.312-.356-.534-.49-.623.223-.09.4-.223.534-.4.134-.179.178-.402.178-.669 0-.4-.133-.712-.4-.935-.267-.222-.668-.356-1.113-.356z"/></g><g><path fill="#161717" d="M54.23 83.486h.401v.623h-1.513v-.623h.4V81.35h-.4v-.623h1.513v.623h-.4z"/></g><g><path fill="#161717" d="M56.768 80.637c.268 0 .49.044.757.133.223.09.446.223.624.401l-.446.4a1.393 1.393 0 0 0-.445-.222c-.178-.044-.311-.089-.445-.089h-.045c-.133 0-.267.045-.4.09-.134.044-.178.177-.178.31 0 .09.044.179.133.223.09.045.223.09.445.09l.268.044c.4.044.667.133.89.312.223.178.312.4.312.756a.951.951 0 0 1-.357.757c-.267.178-.578.267-.979.312h-.044c-.312 0-.624-.045-.846-.178a1.608 1.608 0 0 1-.58-.49l.446-.4c.09.133.223.222.4.311.179.09.401.134.624.134h.045a.897.897 0 0 0 .49-.134c.133-.089.177-.178.177-.312 0-.133-.044-.222-.178-.311-.089-.045-.267-.09-.49-.134l-.267-.044c-.756-.09-1.157-.401-1.157-.935 0-.312.133-.58.356-.757.223-.134.49-.267.89-.267z"/></g><g><path fill="#161717" d="M62.334 84.11h-.668v-2.182l-1.024 1.29-1.024-1.29v2.181h-.668v-3.428h.4l1.292 1.647 1.29-1.647h.402z"/></g><g><path fill="#161717" d="M66.162 81.305c.223 0 .446.044.58.178.133.133.222.267.222.49 0 .222-.09.4-.223.49-.133.133-.356.177-.579.177h-.534v-1.335zm-1.202 2.804h.757v-.846h.356c.179 0 .268.045.357.09.089.044.178.178.311.4l.223.356h.757l-.312-.445c-.178-.312-.356-.534-.49-.623.223-.09.401-.223.535-.4.133-.179.178-.402.178-.669 0-.4-.134-.712-.401-.935-.267-.222-.668-.356-1.113-.356H64.96z"/></g><g><path fill="#161717" d="M69.012 82.061h1.469v.624h-1.47v.757h1.604v.623h-2.271v-3.428h2.27v.623h-1.602z"/></g><g><path fill="#161717" d="M72.885 84.11h-.4L71.06 80.68h.757l.846 2.182.846-2.182h.756z"/></g><g><path fill="#161717" d="M77.337 82.418c0 .311-.089.578-.311.8-.178.224-.446.313-.757.313a.976.976 0 0 1-.757-.312c-.223-.223-.312-.49-.312-.801 0-.312.09-.58.312-.802.178-.222.445-.311.757-.311.311 0 .534.089.757.311.222.178.311.445.311.802zm-2.805 0c0 .49.134.934.49 1.246.356.312.757.49 1.247.49.49 0 .89-.134 1.246-.49.312-.356.49-.757.49-1.246 0-.49-.133-.89-.49-1.247-.356-.312-.756-.49-1.246-.49s-.89.134-1.247.49c-.311.312-.49.757-.49 1.247z"/></g><g><path fill="#161717" d="M81.033 84.11h-2.226V80.68h.667v2.805h1.559z"/></g><g><path fill="#161717" d="M84.327 80.681v2.004c0 .49-.133.846-.4 1.068a1.31 1.31 0 0 1-.98.4c-.4 0-.712-.133-.98-.4-.267-.267-.4-.623-.4-1.068V80.68h.668v1.96c0 .31.089.533.222.667a.715.715 0 0 0 .49.223c.223 0 .356-.09.49-.223.133-.134.222-.356.222-.668v-1.959z"/></g><g><path fill="#161717" d="M86.598 81.305v2.804h-.713v-2.804h-.935v-.624h2.538v.624z"/></g><g><path fill="#161717" d="M89.314 83.486h.4v.623h-1.513v-.623h.4V81.35h-.4v-.623h1.513v.623h-.4z"/></g><g><path fill="#161717" d="M93.276 82.418c0 .311-.134.578-.312.8-.178.224-.445.313-.757.313a.976.976 0 0 1-.756-.312c-.223-.223-.312-.49-.312-.801 0-.312.089-.58.312-.802.178-.222.445-.311.756-.311.312 0 .535.089.757.311.178.178.312.445.312.802zm-2.805 0c0 .49.134.934.49 1.246.356.312.757.49 1.246.49.49 0 .89-.134 1.247-.49.356-.356.534-.757.534-1.246 0-.49-.178-.89-.534-1.247-.356-.312-.757-.49-1.247-.49-.49 0-.89.134-1.246.49a1.447 1.447 0 0 0-.49 1.247z"/></g><g><path fill="#161717" d="M97.372 84.11h-.4l-1.603-2.182v2.181H94.7v-3.428h.4l1.648 2.182V80.68h.668v3.428z"/></g></g></g></g></svg>